<?xml version="1.0" standalone="no"?>
<!DOCTYPE svg PUBLIC "-//W3C//DTD SVG 20010904//EN"
 "http://www.w3.org/TR/2001/REC-SVG-20010904/DTD/svg10.dtd">
<svg version="1.0" xmlns="http://www.w3.org/2000/svg"
 width="285.000000pt" height="61.000000pt" viewBox="0 0 285.000000 61.000000"
 preserveAspectRatio="xMidYMid meet">

<g transform="translate(0.000000,61.000000) scale(0.100000,-0.100000)"
fill="#000000" stroke="none">
<path d="M0 305 l0 -305 1425 0 1425 0 0 305 0 305 -1425 0 -1425 0 0 -305z
m326 194 c41 -19 154 -130 154 -150 0 -24 21 -5 31 30 19 64 -17 121 -76 121
-8 0 -15 5 -15 11 0 8 16 10 53 6 41 -5 58 -13 80 -37 36 -40 35 -79 -4 -147
-30 -54 -30 -55 -15 -101 22 -69 31 -126 18 -118 -6 3 -14 21 -17 39 -6 26
-30 83 -40 95 -2 2 -33 -17 -71 -42 -74 -50 -144 -79 -214 -90 -53 -8 -45 5
15 24 62 20 125 55 188 105 64 51 64 50 4 120 -49 57 -128 99 -172 91 -34 -7
-75 -46 -75 -72 0 -8 -4 -14 -10 -14 -14 0 -12 45 4 84 28 66 86 83 162 45z
m484 -76 c0 -14 -15 -29 -32 -36 -24 -9 -23 -27 2 -27 11 0 20 -7 20 -15 0 -8
-9 -15 -20 -15 -18 0 -20 -7 -20 -65 0 -63 -1 -65 -25 -65 -25 0 -25 1 -25 86
0 81 10 120 34 136 14 10 66 10 66 1z m368 -15 c3 -13 -3 -18 -22 -18 -20 0
-26 5 -26 21 0 15 5 20 22 17 13 -2 24 -11 26 -20z m622 -83 c0 -87 3 -105 15
-105 8 0 15 -5 15 -11 0 -6 -10 -9 -22 -7 -22 3 -23 7 -26 116 -2 72 1 112 8
112 6 0 10 -39 10 -105z m390 96 c0 -5 -11 -12 -25 -15 -31 -8 -35 -46 -5 -46
11 0 20 -4 20 -10 0 -5 -9 -10 -20 -10 -18 0 -20 -7 -20 -70 0 -56 -3 -70 -15
-70 -12 0 -15 14 -15 69 0 46 -4 71 -12 75 -10 5 -10 7 0 12 6 3 12 11 12 18
0 24 32 56 56 56 13 0 24 -4 24 -9z m-134 -61 c13 0 24 -4 24 -10 0 -5 -11
-10 -25 -10 -23 0 -25 -4 -25 -44 0 -57 8 -76 31 -76 10 0 19 -4 19 -10 0 -14
-43 -13 -58 2 -7 7 -12 38 -12 69 0 37 -5 59 -12 62 -9 4 -10 8 -2 14 6 4 14
17 19 28 8 19 9 19 12 -2 3 -17 11 -23 29 -23z m-982 4 c28 -11 18 -34 -14
-34 -38 0 -39 -15 -1 -28 58 -20 48 -86 -14 -98 -42 -7 -65 0 -65 21 0 11 10
15 35 15 42 0 46 16 8 31 -47 18 -55 47 -23 79 20 20 45 25 74 14z m259 -26
c43 -51 6 -138 -59 -138 -78 0 -103 130 -31 160 30 13 69 3 90 -22z m-463 -38
c0 -53 2 -60 20 -60 18 0 20 7 20 60 0 57 1 60 25 60 24 0 25 -2 25 -74 0 -81
-4 -86 -66 -86 -53 0 -74 28 -74 100 0 57 1 60 25 60 24 0 25 -3 25 -60z m308
-17 c-3 -72 -5 -78 -25 -81 -22 -3 -23 -1 -23 77 0 80 0 81 25 81 26 0 26 0
23 -77z m323 61 c9 -10 14 -41 14 -78 0 -56 -2 -61 -22 -64 -21 -3 -23 0 -23
51 0 36 -5 59 -15 67 -24 20 -35 2 -35 -61 0 -52 -2 -59 -20 -59 -18 0 -20 7
-20 80 l0 80 54 0 c38 0 58 -5 67 -16z m223 -6 c39 -55 -1 -138 -65 -138 -26
0 -29 -3 -29 -35 0 -24 -5 -35 -15 -35 -12 0 -15 19 -15 114 l0 113 54 2 c46
1 57 -3 70 -21z m224 10 c7 -7 12 -40 12 -80 l0 -68 -43 0 c-50 0 -67 13 -67
52 0 31 23 48 65 48 20 0 26 4 23 18 -2 12 -14 18 -41 20 -20 2 -37 7 -37 13
0 13 74 11 88 -3z m361 -14 c60 -76 -34 -182 -99 -112 -27 29 -27 91 0 118 29
29 74 26 99 -6z m131 17 c0 -3 -10 -11 -22 -16 -20 -9 -23 -19 -26 -72 -4 -90
-22 -78 -22 15 l0 78 35 1 c19 1 35 -2 35 -6z m50 -3 c0 -9 3 -9 12 0 15 15
55 16 64 1 4 -8 9 -8 17 0 15 15 60 14 75 -1 14 -14 17 -148 2 -148 -5 0 -10
28 -12 61 -5 112 -68 104 -68 -8 0 -29 -4 -53 -10 -53 -5 0 -10 24 -10 54 0
67 -7 86 -31 86 -26 0 -39 -30 -39 -89 0 -28 -4 -51 -10 -51 -6 0 -10 33 -10
80 0 47 4 80 10 80 6 0 10 -5 10 -12z"/>
<path d="M1254 317 c-3 -9 -4 -28 -2 -44 2 -20 9 -29 26 -31 22 -3 23 0 20 40
-2 31 -8 44 -21 46 -9 2 -20 -3 -23 -11z"/>
<path d="M1642 328 c-7 -7 -12 -34 -12 -60 0 -44 2 -48 24 -48 34 0 56 25 56
64 0 35 -15 56 -40 56 -9 0 -21 -5 -28 -12z"/>
<path d="M1883 273 c-18 -7 -16 -40 3 -47 37 -14 54 -7 54 24 0 25 -4 30 -22
29 -13 0 -29 -3 -35 -6z"/>
<path d="M2233 332 c-21 -14 -26 -60 -9 -87 31 -47 76 -26 76 35 0 51 -31 75
-67 52z"/>
</g>
</svg>
