<svg xmlns="http://www.w3.org/2000/svg" viewBox="0 0 154.6 153.92"><defs><style>.cls-1{fill:#fff;}</style></defs><title>Ativo 2</title><g id="Camada_2" data-name="Camada 2"><g id="Layer_1" data-name="Layer 1"><g id="_Grupo_" data-name="&lt;Grupo&gt;"><path id="_Caminho_" data-name="&lt;Caminho&gt;" class="cls-1" d="M118.07,80.72c-.4-.8-.5-1.2-.7-1.5-10.6-16.3-22.9-31-38.3-43-9.3-7.2-19.3-13.1-30.8-15.8-10-2.4-19.8-2-28.8,3.8-7.8,5.1-12.2,12.6-15.1,21.2a75.55,75.55,0,0,0-3.6,19.3c-1.4-14.3-1.4-28.5,4.3-42.1,4.2-10.1,10.9-17.8,21.8-20.9,8.1-2.3,16.2-1.4,24.2,1.1,12.7,4.1,23.5,11.4,33.4,20.1,15.3,13.5,27.4,29.6,37.5,47.1.4.7.9,1.5,1.4,2.4a4.33,4.33,0,0,0,1.3-1.6c5.3-8.4,9.1-16.9,10.7-26.9,2.5-15.3-3.9-28.6-17.5-36A60.68,60.68,0,0,0,94,1.22c-.9-.1-3.1-.1-4.3-.2,14.5-1.9,31-1.6,44.8,4.9,9.7,4.6,16.7,11.7,19.2,22.4,1.9,8.2.7,16.3-2,24.2-4.1,11.9-11,22.1-19.1,31.5-.5.6-1.1,1.2-1.6,1.8a1,1,0,0,0-.5.6c9.6,21.3,16.5,43.7,17.1,67.5a205.84,205.84,0,0,0-22.3-61.7c-35.1,32.3-75.3,52.7-123.2,56.4C48,138.62,87.17,116.72,118.07,80.72Z"/></g></g></g></svg>